<?xml version="1.0" encoding="UTF-8"?>
<svg xmlns="http://www.w3.org/2000/svg" xmlns:xlink="http://www.w3.org/1999/xlink" width="285pt" height="285pt" viewBox="0 0 285 285" version="1.1">
<g id="surface1">
<path style="fill:none;stroke-width:2.16;stroke-linecap:butt;stroke-linejoin:miter;stroke:rgb(13.699341%,12.199402%,12.5%);stroke-opacity:1;stroke-miterlimit:22.9256;" d="M 10 2844.648438 L 2844.648438 2844.648438 L 2844.648438 10 L 10 10 Z M 10 2844.648438 " transform="matrix(0.1,0,0,-0.1,0,285)"/>
<path style=" stroke:none;fill-rule:nonzero;fill:rgb(0%,44.299316%,71.798706%);fill-opacity:1;" d="M 60.273438 271.058594 C 66.671875 271.058594 71.160156 269.367188 74.105469 266.644531 C 78.226563 263.109375 79.84375 258.476563 80.285156 252.441406 C 80.507813 249.574219 80.652344 236.695313 80.652344 235.664063 C 80.652344 234.636719 80.652344 224.1875 80.800781 223.453125 C 81.023438 222.570313 81.242188 220.507813 83.964844 220.507813 L 86.980469 220.507813 C 87.347656 220.507813 87.421875 220.214844 87.421875 219.773438 L 87.421875 218.152344 C 87.421875 217.933594 87.347656 217.640625 86.6875 217.640625 C 86.023438 217.640625 83.671875 217.859375 78.59375 217.859375 C 73.664063 217.859375 70.277344 217.640625 69.542969 217.640625 C 69.101563 217.640625 69.027344 217.785156 69.027344 218.152344 L 69.027344 219.917969 C 69.027344 220.289063 69.101563 220.507813 69.542969 220.507813 L 72.78125 220.507813 C 74.695313 220.507813 75.871094 221.832031 76.09375 223.746094 C 76.3125 225.585938 76.460938 229.851563 76.460938 235.445313 L 76.460938 251.191406 C 76.460938 256.636719 75.503906 261.050781 72.632813 264.140625 C 70.058594 266.789063 65.789063 268.1875 61.597656 268.1875 C 57.328125 268.1875 52.621094 266.863281 49.898438 262.890625 C 48.203125 260.390625 47.617188 256.929688 47.542969 253.546875 C 47.46875 251.191406 47.175781 241.847656 47.175781 237.945313 L 47.175781 233.089844 C 47.175781 229.339844 47.25 224.1875 47.320313 223.527344 C 47.46875 221.90625 48.71875 220.507813 50.855469 220.507813 L 54.53125 220.507813 C 55.046875 220.507813 55.121094 220.359375 55.121094 219.992188 L 55.121094 218.082031 C 55.121094 217.785156 55.046875 217.640625 54.460938 217.640625 C 53.648438 217.640625 50.117188 217.859375 44.378906 217.859375 C 38.640625 217.859375 35.035156 217.640625 34.296875 217.640625 C 33.710938 217.640625 33.636719 217.785156 33.636719 218.226563 L 33.636719 219.847656 C 33.636719 220.359375 33.710938 220.507813 34.152344 220.507813 L 37.609375 220.507813 C 39.890625 220.507813 40.40625 221.683594 40.40625 224.261719 L 40.40625 241.773438 C 40.40625 251.410156 40.699219 256.34375 41.582031 259.652344 C 42.761719 264.289063 45.335938 267.527344 50.339844 269.511719 C 52.765625 270.542969 56.445313 271.058594 60.273438 271.058594 Z M 100.375 239.933594 C 100.375 253.03125 100.226563 261.417969 100.078125 262.816406 C 99.710938 266.421875 98.902344 267.304688 96.769531 267.304688 L 94.265625 267.304688 C 93.898438 267.304688 93.824219 267.527344 93.824219 267.746094 L 93.824219 269.660156 C 93.824219 270.027344 93.898438 270.175781 94.195313 270.175781 C 94.929688 270.175781 100.007813 269.953125 101.550781 269.953125 C 103.539063 269.953125 107.953125 270.175781 108.6875 270.175781 C 109.203125 270.175781 109.277344 270.027344 109.277344 269.585938 L 109.277344 267.96875 C 109.277344 267.527344 109.203125 267.304688 108.6875 267.304688 L 106.480469 267.304688 C 104.496094 267.304688 104.054688 265.90625 103.757813 263.039063 C 103.613281 261.566406 103.023438 249.574219 103.023438 242.730469 L 103.023438 226.394531 L 103.464844 226.394531 C 103.90625 226.984375 117.445313 243.980469 118.253906 244.714844 C 118.695313 245.15625 124.066406 251.925781 129.21875 258.328125 C 133.78125 264.066406 138.121094 269.511719 138.195313 269.660156 C 138.414063 269.953125 139.078125 270.835938 139.960938 270.835938 C 140.253906 270.835938 140.328125 270.101563 140.328125 269.070313 L 140.328125 241.550781 C 140.328125 236.769531 140.328125 229.484375 140.621094 224.554688 C 140.769531 221.757813 141.507813 220.507813 143.492188 220.507813 L 145.480469 220.507813 C 145.773438 220.507813 145.921875 220.289063 145.921875 219.992188 L 145.921875 218.152344 C 145.921875 217.859375 145.847656 217.640625 145.332031 217.640625 C 144.375 217.640625 142.609375 217.859375 138.195313 217.859375 C 133.484375 217.859375 131.132813 217.640625 130.101563 217.640625 C 129.808594 217.640625 129.660156 217.785156 129.660156 218.082031 L 129.660156 219.992188 C 129.660156 220.359375 129.808594 220.507813 130.101563 220.507813 L 132.453125 220.507813 C 134.515625 220.507813 135.914063 221.539063 136.503906 223.378906 C 136.945313 224.628906 137.3125 231.839844 137.386719 234.710938 C 137.53125 238.390625 137.605469 241.992188 137.605469 248.542969 L 137.605469 257.296875 L 137.3125 257.296875 C 135.546875 254.945313 123.109375 239.714844 122.300781 238.683594 C 121.492188 237.652344 107.21875 219.109375 106.851563 218.667969 C 106.261719 218.007813 105.671875 217.710938 104.714844 217.710938 C 103.832031 217.710938 102.289063 217.859375 99.785156 217.859375 C 97.285156 217.859375 95.664063 217.785156 94.5625 217.710938 C 93.457031 217.710938 92.871094 217.640625 92.5 217.640625 C 92.132813 217.640625 92.058594 217.785156 92.058594 218.082031 L 92.058594 219.992188 C 92.058594 220.214844 92.132813 220.507813 92.5 220.507813 L 95.519531 220.582031 C 98.167969 220.65625 100.375 223.082031 100.375 227.425781 Z M 168.953125 220.214844 L 182.050781 220.507813 C 184.035156 220.582031 186.097656 221.464844 187.640625 222.496094 C 189.40625 223.597656 194.851563 230.589844 195 230.882813 C 195.074219 231.03125 195.367188 231.25 195.589844 231.105469 L 196.691406 230.515625 C 196.988281 230.367188 196.988281 230.148438 196.914063 229.851563 C 196.691406 229.117188 193.453125 219.035156 193.160156 218.007813 C 193.085938 217.785156 192.941406 217.640625 192.570313 217.640625 C 192.203125 217.640625 190.804688 217.785156 189.628906 217.785156 C 182.34375 217.785156 175.058594 217.859375 167.773438 217.859375 L 164.539063 217.859375 C 159.683594 217.859375 157.105469 217.640625 155.488281 217.640625 C 155.121094 217.640625 154.972656 217.785156 154.972656 218.007813 L 154.972656 219.992188 C 154.972656 220.433594 155.191406 220.507813 155.5625 220.507813 L 158.210938 220.507813 C 160.933594 220.507813 161.667969 221.023438 161.964844 223.378906 C 162.035156 224.113281 162.183594 233.3125 162.183594 239.417969 L 162.183594 264.066406 C 162.183594 266.789063 161.890625 267.304688 158.503906 267.304688 L 155.5625 267.304688 C 155.046875 267.304688 154.824219 267.378906 154.824219 267.671875 L 154.824219 269.660156 C 154.824219 270.027344 155.046875 270.175781 155.488281 270.175781 C 156.148438 270.175781 157.105469 270.101563 158.652344 270.027344 C 160.121094 270.027344 162.183594 269.953125 164.90625 269.953125 C 176.382813 269.953125 183.523438 270.027344 187.9375 270.027344 C 192.351563 270.101563 193.96875 270.175781 194.339844 270.175781 C 195.222656 270.175781 195.734375 269.734375 195.957031 269.070313 L 199.855469 258.253906 C 200.078125 257.667969 200.078125 257.445313 199.710938 257.226563 L 198.53125 256.5625 C 198.089844 256.34375 197.871094 256.636719 197.648438 257.003906 C 196.617188 258.695313 192.496094 263.996094 191.617188 264.730469 C 189.703125 266.347656 186.464844 267.15625 185.214844 267.304688 C 183.667969 267.453125 179.988281 267.527344 178.738281 267.527344 C 176.898438 267.527344 174.765625 267.304688 173.292969 267.011719 C 171.011719 266.570313 169.171875 265.097656 169.101563 261.273438 C 169.101563 259.800781 168.953125 252.664063 168.953125 248.691406 L 168.953125 244.128906 C 170.128906 244.128906 175.207031 244.128906 178.664063 244.496094 C 180.578125 244.714844 181.386719 245.820313 181.828125 247.363281 C 182.050781 248.175781 182.492188 249.867188 182.640625 250.824219 C 182.714844 251.339844 182.859375 251.558594 183.226563 251.484375 L 184.847656 251.265625 C 185.140625 251.191406 185.289063 251.042969 185.289063 250.675781 C 185.140625 249.132813 184.847656 245.597656 184.847656 243.023438 C 184.847656 241.921875 184.847656 235.886719 185.066406 234.636719 C 185.140625 234.339844 184.992188 234.046875 184.625 234.046875 L 182.785156 233.972656 C 182.492188 233.972656 182.269531 234.121094 182.269531 234.488281 C 182.195313 235.886719 181.902344 237.359375 181.683594 238.09375 C 181.019531 240.375 180.429688 240.964844 178.296875 241.332031 C 177.414063 241.480469 169.539063 241.773438 168.953125 241.773438 Z M 219.429688 246.628906 C 221.785156 246.921875 224.726563 246.996094 227.449219 246.996094 C 239.148438 246.996094 246.140625 241.257813 246.140625 231.988281 C 246.140625 227.792969 244.007813 223.671875 240.546875 221.316406 C 236.355469 218.449219 232.453125 217.640625 224.140625 217.640625 C 221.710938 217.640625 217.371094 217.859375 216.046875 217.859375 C 209.054688 217.859375 206.40625 217.640625 205.597656 217.640625 C 205.230469 217.640625 205.15625 217.785156 205.15625 218.152344 L 205.15625 219.917969 C 205.15625 220.359375 205.230469 220.507813 205.597656 220.507813 L 209.789063 220.507813 C 211.777344 220.507813 212.515625 220.65625 212.660156 222.128906 C 212.734375 222.863281 212.808594 230.882813 212.808594 235.738281 L 212.808594 244.203125 C 212.808594 252.738281 212.589844 264.214844 212.515625 264.949219 C 212.292969 266.9375 211.777344 267.304688 209.277344 267.304688 L 206.113281 267.304688 C 205.746094 267.304688 205.671875 267.453125 205.671875 267.820313 L 205.671875 269.660156 C 205.671875 269.953125 205.746094 270.175781 206.257813 270.175781 C 207.070313 270.175781 209.9375 269.953125 216.414063 269.953125 C 223.328125 269.953125 225.609375 270.175781 226.640625 270.175781 C 227.230469 270.175781 227.304688 269.953125 227.304688 269.585938 L 227.304688 267.820313 C 227.304688 267.527344 227.230469 267.304688 226.714844 267.304688 L 222.007813 267.304688 C 220.460938 267.304688 219.726563 266.570313 219.578125 264.949219 C 219.503906 263.921875 219.429688 253.914063 219.429688 250.457031 Z M 219.429688 220.507813 C 220.902344 219.992188 223.917969 219.992188 225.171875 219.992188 C 229.511719 219.992188 238.488281 222.570313 238.488281 232.207031 C 238.488281 234.78125 238.191406 237.503906 236.574219 239.640625 C 234.660156 242.214844 230.6875 244.644531 226.199219 244.644531 C 223.328125 244.644531 220.902344 244.421875 219.429688 243.980469 L 219.429688 220.507813 "/>
<path style=" stroke:none;fill-rule:evenodd;fill:rgb(0%,44.299316%,71.798706%);fill-opacity:1;" d="M 44.472656 124.214844 C 37.789063 115.96875 33.332031 107.953125 33.332031 100.15625 C 33.332031 93.46875 34.222656 90.128906 36.230469 87.453125 C 37.789063 95.027344 39.570313 100.15625 42.46875 104.832031 C 44.917969 108.617188 49.152344 115.527344 49.820313 120.652344 C 50.933594 109.734375 53.828125 101.9375 62.519531 92.804688 C 62.519531 104.160156 62.519531 110.40625 58.0625 118.421875 C 55.164063 123.769531 54.496094 128.890625 54.496094 136.695313 L 53.828125 136.695313 Z M 56.503906 156.300781 C 40.683594 149.167969 34.894531 140.699219 34.894531 120.652344 L 35.5625 120.652344 C 41.355469 133.125 51.824219 146.71875 61.851563 150.0625 C 58.730469 138.027344 59.398438 131.121094 62.519531 120.652344 C 67.867188 128.226563 68.757813 135.128906 68.757813 144.269531 C 68.757813 150.949219 68.757813 158.523438 73.433594 162.984375 L 72.765625 163.652344 Z M 50.933594 50.691406 L 51.601563 51.363281 C 48.039063 63.839844 46.703125 74.085938 49.152344 87.230469 C 53.386719 77.203125 62.519531 70.96875 69.425781 67.398438 C 67.867188 76.761719 65.191406 81.4375 57.394531 89.234375 C 52.9375 93.691406 49.152344 97.925781 47.371094 104.832031 L 46.703125 104.832031 C 42.46875 90.128906 40.238281 83.667969 40.238281 74.753906 C 40.238281 65.84375 44.472656 56.707031 50.933594 50.691406 Z M 43.804688 155.183594 L 44.472656 154.515625 C 51.601563 161.425781 58.0625 165.429688 68.757813 166.546875 C 73.433594 167.214844 81.457031 170.5625 85.691406 172.5625 C 78.558594 166.328125 75.664063 154.289063 75.664063 144.269531 C 80.789063 148.726563 87.695313 156.300781 89.03125 162.984375 C 89.699219 166.546875 94.15625 173.453125 99.726563 176.34375 C 92.597656 178.132813 87.695313 178.574219 80.117188 178.574219 C 63.855469 178.574219 48.707031 170.777344 43.804688 155.183594 Z M 54.496094 63.394531 C 56.058594 54.261719 57.617188 48.46875 60.289063 44.011719 C 64.300781 37.105469 69.425781 30.195313 76.332031 27.296875 L 77 27.96875 C 70.761719 37.105469 66.753906 45.121094 64.300781 54.925781 C 70.09375 50.691406 80.789063 48.46875 86.582031 47.574219 C 83.683594 52.472656 77.890625 56.929688 68.757813 61.164063 C 63.1875 63.839844 59.621094 66.289063 53.386719 72.527344 L 52.9375 71.855469 Z M 109.527344 200.414063 C 117.328125 193.0625 125.125 187.714844 134.257813 183.925781 C 116.882813 184.8125 108.191406 192.390625 92.152344 192.390625 C 84.132813 192.390625 73.65625 190.160156 67.867188 184.59375 L 68.53125 183.925781 C 71.65625 184.8125 74.328125 184.8125 77 184.8125 C 85.691406 184.8125 101.953125 178.132813 114.652344 178.132813 C 125.125 178.132813 131.585938 179.246094 140.496094 182.59375 C 149.1875 179.246094 156.089844 178.132813 166.117188 178.132813 C 178.816406 178.132813 195.082031 184.8125 203.769531 184.8125 C 206.890625 184.8125 209.34375 184.8125 212.238281 183.925781 L 212.910156 184.59375 C 207.113281 190.160156 196.644531 192.390625 188.621094 192.390625 C 173.023438 192.390625 164.113281 184.8125 146.511719 183.925781 C 155.648438 187.714844 163.441406 193.0625 171.242188 200.414063 L 164.78125 200.414063 C 157.652344 191.71875 145.621094 185.484375 140.496094 185.484375 C 135.597656 185.484375 123.121094 191.71875 114.652344 200.414063 Z M 77.667969 38.441406 C 83.015625 27.96875 92.820313 17.273438 107.300781 15.941406 C 101.285156 24.402344 95.492188 29.972656 87.917969 35.542969 C 92.597656 34.207031 96.828125 33.089844 100.394531 33.089844 C 103.289063 33.089844 106.632813 33.761719 109.527344 34.871094 C 103.289063 39.328125 94.601563 41.558594 89.925781 41.558594 C 85.464844 41.558594 78.558594 43.339844 73.882813 44.675781 Z M 127.351563 100.15625 C 132.921875 100.820313 138.492188 107.507813 138.492188 123.101563 C 138.492188 149.167969 130.695313 166.546875 127.128906 166.546875 C 120.890625 166.546875 82.792969 151.398438 82.792969 108.617188 C 82.792969 97.257813 85.023438 95.25 88.585938 95.921875 Z M 89.253906 92.132813 C 87.027344 92.355469 86.359375 90.796875 86.359375 89.90625 C 86.359375 87.453125 101.730469 51.363281 141.386719 51.363281 C 181.046875 51.363281 196.417969 87.453125 196.417969 89.90625 C 196.417969 90.796875 195.746094 92.355469 193.523438 92.132813 L 143.617188 84.335938 L 143.617188 83.667969 C 147.179688 82.332031 148.964844 79.433594 148.964844 75.425781 C 148.964844 70.96875 146.511719 67.398438 141.386719 67.398438 C 136.261719 67.398438 133.8125 70.96875 133.8125 75.425781 C 133.8125 79.433594 135.597656 82.332031 139.160156 83.667969 L 139.160156 84.335938 Z M 102.621094 28.859375 L 100.394531 28.859375 L 100.394531 28.191406 L 106.632813 23.957031 C 113.761719 17.941406 118.886719 15.941406 125.125 15.941406 C 128.246094 15.941406 130.695313 16.605469 133.144531 17.941406 L 133.144531 18.609375 C 126.015625 19.722656 119.332031 21.507813 112.425781 25.070313 C 120.890625 26.410156 124.011719 27.296875 131.363281 31.976563 C 129.578125 32.425781 127.351563 33.089844 125.125 33.089844 C 116.65625 33.089844 112.648438 29.308594 102.621094 28.859375 Z M 158.320313 25.070313 C 153.644531 25.070313 147.847656 25.738281 142.726563 27.078125 L 142.726563 27.746094 C 147.179688 28.859375 150.746094 32.425781 153.199219 36.433594 C 144.953125 34.871094 136.488281 30.867188 131.363281 24.402344 C 135.820313 22.84375 141.613281 20.394531 147.179688 20.394531 C 150.746094 20.394531 155.425781 21.0625 158.320313 25.070313 Z M 194.1875 95.921875 C 197.757813 95.25 199.980469 97.257813 199.980469 108.617188 C 199.980469 151.398438 161.882813 166.546875 155.648438 166.546875 C 152.082031 166.546875 144.285156 149.167969 144.285156 123.101563 C 144.285156 107.507813 149.855469 100.820313 155.425781 100.15625 Z M 161.882813 37.105469 C 159.65625 36.210938 158.320313 32.871094 156.984375 29.527344 C 164.558594 30.867188 169.683594 34.207031 171.910156 40.890625 Z M 185.058594 178.574219 L 182.382813 178.574219 L 182.382813 178.132813 C 187.953125 175.011719 189.289063 171.222656 190.847656 168.328125 C 195.304688 159.863281 200.652344 151.621094 208.003906 147.832031 C 206.445313 154.515625 204.214844 167.214844 195.304688 173.453125 L 195.972656 174.125 C 212.011719 170.5625 224.710938 164.984375 238.300781 153.847656 L 238.972656 154.515625 C 232.289063 172.78125 214.910156 180.363281 203.546875 180.363281 C 199.980469 180.363281 194.414063 178.574219 185.058594 178.574219 Z M 186.839844 20.394531 C 195.304688 20.394531 203.324219 23.957031 206.445313 31.976563 C 199.539063 30.644531 193.523438 27.746094 189.289063 23.066406 Z M 214.238281 37.769531 L 214.910156 37.105469 C 212.238281 33.761719 208.003906 27.296875 208.003906 25.738281 C 218.472656 28.859375 221.820313 36.433594 222.484375 46.238281 C 210.007813 43.5625 202.210938 40 198.421875 32.425781 Z M 222.484375 121.316406 C 223.152344 125.328125 224.710938 132.238281 224.710938 136.695313 C 224.710938 142.484375 223.152344 148.726563 220.261719 153.402344 L 220.703125 153.847656 C 232.734375 145.378906 239.644531 135.355469 247.4375 123.769531 L 248.105469 124.214844 C 245.882813 141.816406 238.300781 156.300781 210.453125 164.316406 C 213.355469 158.523438 213.355469 152.285156 213.355469 147.832031 C 213.355469 138.027344 215.578125 130.453125 222.484375 121.316406 Z M 236.074219 73.863281 C 224.9375 68.074219 216.914063 59.605469 211.121094 48.242188 L 211.792969 47.574219 C 214.910156 49.132813 227.613281 55.371094 229.171875 58.265625 L 229.839844 57.601563 C 227.613281 54.261719 226.941406 43.339844 226.941406 40.890625 C 234.515625 47.574219 237.414063 56.707031 237.414063 66.289063 C 237.414063 68.738281 236.96875 71.191406 236.074219 73.863281 Z M 237.414063 102.605469 C 236.074219 97.257813 234.515625 94.363281 230.503906 90.570313 C 227.613281 86.785156 224.046875 78.320313 222.484375 69.410156 L 223.152344 68.738281 C 224.046875 70.96875 226.269531 73.195313 231.621094 77.878906 C 233.851563 80.101563 236.742188 84.558594 236.96875 88.125 L 237.636719 88.125 L 241.648438 62.722656 L 242.316406 62.722656 C 244.320313 67.398438 245.882813 73.195313 245.882813 77.878906 C 245.882813 84.558594 241.203125 97.257813 237.414063 102.605469 Z M 226.269531 93.691406 C 230.503906 100.15625 234.515625 108.617188 234.738281 117.757813 L 235.410156 117.757813 C 236.074219 113.300781 237.414063 109.289063 240.753906 106.390625 C 242.984375 104.160156 248.105469 95.027344 249.671875 92.132813 L 250.332031 92.132813 C 252.789063 106.835938 244.542969 121.761719 231.621094 135.800781 C 231.84375 125.328125 224.046875 107.953125 224.046875 101.9375 C 224.046875 99.039063 224.9375 95.027344 226.269531 93.691406 "/>
</g>
</svg>
